<svg width="108" height="34" viewBox="0 0 108 34" fill="none" xmlns="http://www.w3.org/2000/svg">
<path d="M1.76989 6.63636H7.07955L12.6875 20.3182H12.9261L18.5341 6.63636H23.8438V27H19.6676V13.7457H19.4986L14.2287 26.9006H11.3849L6.11506 13.696H5.94602V27H1.76989V6.63636ZM36.2655 20.4972V11.7273H40.5013V27H36.4345V24.2259H36.2754C35.9307 25.1207 35.3573 25.84 34.5552 26.3835C33.7598 26.9271 32.7887 27.1989 31.6419 27.1989C30.6211 27.1989 29.7229 26.9669 28.9473 26.5028C28.1717 26.0388 27.5652 25.3793 27.1277 24.5241C26.6968 23.669 26.4781 22.6449 26.4714 21.4517V11.7273H30.7072V20.696C30.7139 21.5975 30.9558 22.3101 31.4331 22.8338C31.9104 23.3575 32.55 23.6193 33.3521 23.6193C33.8625 23.6193 34.3398 23.5033 34.7839 23.2713C35.2281 23.0327 35.586 22.6813 35.8578 22.2173C36.1362 21.7533 36.2721 21.1799 36.2655 20.4972ZM43.0494 27V11.7273H47.1559V14.392H47.315C47.5934 13.4441 48.0608 12.7282 48.717 12.2443C49.3733 11.7538 50.1289 11.5085 50.9841 11.5085C51.1962 11.5085 51.4249 11.5218 51.6701 11.5483C51.9154 11.5748 52.1308 11.6113 52.3164 11.6577V15.4162C52.1176 15.3565 51.8425 15.3035 51.4912 15.2571C51.1398 15.2107 50.8183 15.1875 50.5267 15.1875C49.9036 15.1875 49.3468 15.3234 48.8562 15.5952C48.3723 15.8603 47.9879 16.2315 47.7028 16.7088C47.4244 17.1861 47.2852 17.7363 47.2852 18.3594V27H43.0494ZM53.6664 32.7273V11.7273H57.8426V14.2926H58.0315C58.2171 13.8816 58.4856 13.464 58.8369 13.0398C59.1948 12.6089 59.6589 12.2509 60.2289 11.9659C60.8056 11.6742 61.5215 11.5284 62.3767 11.5284C63.4903 11.5284 64.5178 11.8201 65.459 12.4034C66.4003 12.9801 67.1527 13.8518 67.7161 15.0185C68.2796 16.1785 68.5613 17.6335 68.5613 19.3835C68.5613 21.0871 68.2862 22.5256 67.736 23.6989C67.1925 24.8655 66.4501 25.7505 65.5088 26.3537C64.5741 26.9503 63.5268 27.2486 62.3667 27.2486C61.5447 27.2486 60.8454 27.1127 60.2687 26.8409C59.6986 26.5691 59.2313 26.2277 58.8667 25.8168C58.5021 25.3991 58.2237 24.9782 58.0315 24.554H57.9022V32.7273H53.6664ZM57.8127 19.3636C57.8127 20.2718 57.9387 21.0639 58.1906 21.7401C58.4425 22.4162 58.8071 22.9432 59.2843 23.321C59.7616 23.6922 60.3416 23.8778 61.0244 23.8778C61.7138 23.8778 62.2971 23.6889 62.7744 23.3111C63.2517 22.9266 63.6129 22.3963 63.8582 21.7202C64.1101 21.0374 64.236 20.2519 64.236 19.3636C64.236 18.482 64.1134 17.7064 63.8681 17.0369C63.6229 16.3674 63.2616 15.8437 62.7843 15.4659C62.3071 15.0881 61.7204 14.8991 61.0244 14.8991C60.335 14.8991 59.7517 15.0814 59.2744 15.446C58.8037 15.8106 58.4425 16.3277 58.1906 16.9972C57.9387 17.6667 57.8127 18.4555 57.8127 19.3636ZM74.781 18.1705V27H70.5452V6.63636H74.6617V14.4219H74.8406C75.1853 13.5204 75.7422 12.8144 76.5111 12.304C77.28 11.7869 78.2445 11.5284 79.4046 11.5284C80.4652 11.5284 81.3899 11.7604 82.1787 12.2244C82.9742 12.6818 83.5906 13.3414 84.0281 14.2031C84.4723 15.0582 84.691 16.0824 84.6844 17.2756V27H80.4486V18.0312C80.4552 17.09 80.2166 16.3575 79.7327 15.8338C79.2554 15.3101 78.5859 15.0483 77.7242 15.0483C77.1475 15.0483 76.637 15.1709 76.1929 15.4162C75.7554 15.6615 75.4107 16.0194 75.1588 16.4901C74.9136 16.9541 74.7876 17.5142 74.781 18.1705ZM89.246 32.7273C88.7091 32.7273 88.2053 32.6842 87.7347 32.598C87.2706 32.5185 86.8862 32.4157 86.5813 32.2898L87.5358 29.1278C88.033 29.2803 88.4804 29.3632 88.8781 29.3764C89.2825 29.3897 89.6305 29.2969 89.9222 29.098C90.2205 28.8991 90.4624 28.5611 90.648 28.0838L90.8966 27.4375L85.4179 11.7273H89.8724L93.0344 22.9432H93.1935L96.3852 11.7273H100.87L94.9335 28.6506C94.6485 29.4725 94.2607 30.1884 93.7702 30.7983C93.2863 31.4148 92.6731 31.8887 91.9307 32.2202C91.1883 32.5582 90.2934 32.7273 89.246 32.7273ZM103.716 27.2585C103.06 27.2585 102.496 27.0265 102.026 26.5625C101.562 26.0919 101.33 25.5284 101.33 24.8722C101.33 24.2225 101.562 23.6657 102.026 23.2017C102.496 22.7377 103.06 22.5057 103.716 22.5057C104.352 22.5057 104.909 22.7377 105.386 23.2017C105.864 23.6657 106.102 24.2225 106.102 24.8722C106.102 25.3097 105.99 25.7107 105.764 26.0753C105.546 26.4332 105.257 26.7216 104.899 26.9403C104.541 27.1525 104.147 27.2585 103.716 27.2585Z" fill="black"/>
</svg>
